<svg width="84" height="67" xmlns="http://www.w3.org/2000/svg" xmlns:xlink="http://www.w3.org/1999/xlink" xml:space="preserve" overflow="hidden"><g transform="translate(-1151 -614)"><path d="M1194.8 679.095 1194.8 679.085 1194.8 678.268 1194.8 614.144 1193.64 614.144 1193.64 639.195 1193.64 661.12 1193.64 678.478 1185.52 673.561 1185.52 661.12 1185.52 639.195 1185.52 620.026 1193.64 614.144 1151 614.144 1151 680.856 1197.55 680.856 1194.8 679.095Z" fill="#FFFFFF"/><path d="M1211.71 637.194C1213.87 636.01 1216.32 635.413 1219.06 635.413 1222.63 635.413 1225.6 636.109 1227.96 637.513 1230.33 638.916 1232.09 640.777 1233.28 643.086 1234.28 645.067 1234.86 647.196 1235 649.486L1235 614.144 1209.11 614.144 1209.11 638.876C1209.93 638.259 1210.79 637.702 1211.7 637.194Z" fill="#FFFFFF"/><path d="M1220.73 673.561 1220.73 654.243C1220.73 651.038 1218.13 648.441 1214.93 648.441L1214.93 648.441C1211.72 648.441 1209.12 651.038 1209.12 654.243L1209.12 673.541 1218.26 680.856 1231.08 680.856" fill="#FFFFFF"/></g></svg>