<svg width="306" height="82" xmlns="http://www.w3.org/2000/svg" xmlns:xlink="http://www.w3.org/1999/xlink" xml:space="preserve" overflow="hidden"><defs><clipPath id="clip0"><rect x="487" y="319" width="306" height="82"/></clipPath></defs><g clip-path="url(#clip0)" transform="translate(-487 -319)"><path d="M10.6057 81.2754C8.62437 81.2754 6.68416 80.9988 4.78882 80.453 2.89348 79.9072 1.29721 79.1146-0.00373835 78.0791L1.72338 75.4324C2.49722 76.0417 3.36077 76.5576 4.31779 76.9838 5.27107 77.4062 6.2879 77.7277 7.35707 77.9483 8.42997 78.1688 9.52531 78.2772 10.6505 78.2772 12.9833 78.2772 14.8562 77.8137 16.2693 76.8866 17.6861 75.9595 18.3927 74.6024 18.3927 72.808 18.3927 71.5108 17.9254 70.408 16.9945 69.5071 16.0599 68.6024 14.3253 67.78 11.7907 67.036L8.29165 66.008C5.56266 65.208 3.56638 64.165 2.29908 62.879 1.03178 61.5967 0.396265 59.9706 0.396265 58.0042 0.396265 56.6771 0.657949 55.4808 1.18506 54.4154 1.70842 53.3499 2.44862 52.4415 3.4019 51.6826 4.35891 50.9238 5.49163 50.3443 6.80379 49.9443 8.11969 49.5443 9.55895 49.3424 11.1328 49.3424 13.0281 49.3424 14.7852 49.6191 16.4039 50.1724 18.0226 50.7294 19.3759 51.4546 20.4712 52.3593L18.6768 54.8976C18.0076 54.3556 17.245 53.8883 16.3927 53.4995 15.5366 53.107 14.6319 52.8079 13.6674 52.6023 12.7029 52.4004 11.7272 52.292 10.7365 52.292 9.32344 52.292 8.07109 52.5051 6.98697 52.9312 5.89911 53.3537 5.05051 53.9743 4.43742 54.7892 3.82807 55.6079 3.52152 56.6135 3.52152 57.8098 3.52152 58.6397 3.71592 59.3724 4.10097 60.0079 4.48975 60.6435 5.15518 61.2154 6.10098 61.7351 7.05052 62.2509 8.36642 62.7556 10.0599 63.2528L13.8207 64.3706C16.4599 65.1444 18.4039 66.1762 19.66 67.4622 20.9123 68.7519 21.5404 70.4417 21.5404 72.5239 21.5404 74.2585 21.1217 75.7838 20.2843 77.0959 19.4431 78.4118 18.2057 79.4361 16.5758 80.1726 14.9422 80.909 12.9534 81.2754 10.6057 81.2754Z" fill="#FFFAF3" transform="matrix(1 0 0 1.00892 487.216 319)"/><path d="M64.1912 81.2754C61.9332 81.2754 59.8322 80.8717 57.8808 80.0604 55.9369 79.253 54.2397 78.124 52.7967 76.681 51.3499 75.238 50.2322 73.5445 49.4284 71.608 48.6284 69.6678 48.2247 67.5706 48.2247 65.3089 48.2247 63.0472 48.6247 60.9238 49.4284 58.9874 50.2284 57.0472 51.3499 55.3574 52.7967 53.9144 54.2397 52.4714 55.9331 51.3499 57.8808 50.5462 59.8285 49.7462 61.9332 49.3424 64.1912 49.3424 66.4491 49.3424 68.5276 49.7499 70.4716 50.5686 72.4118 51.3836 74.1015 52.52 75.5445 53.978 76.9875 55.4359 78.1128 57.1332 78.924 59.0659 79.7352 60.9986 80.1389 63.0771 80.1389 65.3089 80.1389 67.5407 79.7352 69.6678 78.924 71.608 78.1165 73.5482 76.9875 75.238 75.5445 76.681 74.1015 78.124 72.408 79.2492 70.4716 80.0604 68.5314 80.8717 66.4416 81.2754 64.1912 81.2754ZM64.1912 78.1053C65.9257 78.1053 67.5519 77.8025 69.0697 77.1969 70.5837 76.5912 71.9108 75.724 73.0473 74.595 74.1838 73.466 75.0735 72.1164 75.7165 70.5501 76.3557 68.9837 76.681 67.2379 76.681 65.3127 76.681 62.7481 76.124 60.5051 75.0099 58.5874 73.8922 56.6733 72.3893 55.1817 70.5052 54.1163 68.6174 53.0509 66.5127 52.52 64.1949 52.52 62.4603 52.52 60.8379 52.8228 59.3201 53.4285 57.8061 54.0341 56.4789 54.9051 55.3425 56.0303 54.206 57.1593 53.3126 58.5089 52.6621 60.064 52.0154 61.6266 51.6901 63.3762 51.6901 65.3164 51.6901 67.8809 52.2509 70.1239 53.3761 72.0417 54.4976 73.9557 56.0004 75.4473 57.892 76.5127 59.7799 77.5782 61.8846 78.109 64.2024 78.109Z" fill="#FFFAF3" transform="matrix(1 0 0 1.00892 487.216 319)"/><path d="M109.261 81.2006 109.261 49.2415 116.109 49.2415 116.109 60.6547 127.522 60.6547 127.522 49.2415 134.371 49.2415 134.371 81.2006 127.522 81.2006 127.522 67.5033 116.109 67.5033 116.109 81.2006 109.261 81.2006Z" fill="#FFFAF3" transform="matrix(1 0 0 1.00892 487.216 319)"/><path d="M178.072 81.2754C175.725 81.2754 173.553 80.8717 171.556 80.0604 169.56 79.253 167.826 78.124 166.36 76.681 164.895 75.238 163.758 73.5445 162.951 71.608 162.14 69.6678 161.736 67.5706 161.736 65.3089 161.736 63.0472 162.14 60.9238 162.951 58.9874 163.758 57.0472 164.895 55.3574 166.36 53.9144 167.826 52.4714 169.556 51.3499 171.556 50.5462 173.553 49.7462 175.725 49.3424 178.072 49.3424 180.42 49.3424 182.592 49.7499 184.577 50.5686 186.57 51.3836 188.301 52.52 189.773 53.978 191.246 55.4359 192.39 57.1332 193.198 59.0659 194.005 60.9986 194.409 63.0771 194.409 65.3089 194.409 67.5407 194.005 69.6678 193.198 71.608 192.39 73.5482 191.246 75.238 189.773 76.681 188.301 78.124 186.57 79.2492 184.577 80.0604 182.588 80.8717 180.42 81.2754 178.072 81.2754ZM178.072 74.4492C179.328 74.4492 180.487 74.2398 181.553 73.8137 182.614 73.3912 183.542 72.7781 184.33 71.9781 185.115 71.1781 185.729 70.2099 186.158 69.0809 186.585 67.9519 186.801 66.6921 186.801 65.3089 186.801 63.4547 186.424 61.8472 185.665 60.4752 184.906 59.1033 183.871 58.0453 182.558 57.2902 181.243 56.5425 179.747 56.1649 178.072 56.1649 176.82 56.1649 175.661 56.3743 174.596 56.8004 173.53 57.2229 172.607 57.836 171.829 58.636 171.048 59.436 170.439 60.4005 170.001 61.522 169.564 62.6472 169.343 63.907 169.343 65.3089 169.343 67.1594 169.725 68.7706 170.484 70.1426 171.239 71.5146 172.278 72.5725 173.598 73.3239 174.917 74.0753 176.409 74.4492 178.069 74.4492Z" fill="#FFFAF3" transform="matrix(1 0 0 1.00892 487.216 319)"/><path d="M221.112 81.2006 221.112 51.5256 228.192 51.5256 239.994 69.7875 237.067 69.8099 248.297 51.5256 255.352 51.5256 255.352 81.2006 248.503 81.2006 248.503 59.2752 249.718 59.7537 240.88 74.352 236.047 74.352 226.858 59.7537 227.953 59.2752 227.953 81.2006 221.105 81.2006Z" fill="#FFFAF3" transform="matrix(1 0 0 1.00892 487.216 319)"/><path d="M282.742 81.2006 282.742 49.2415 305.569 49.2415 305.569 56.0902 291.871 56.0902 291.871 60.6547 303.285 60.6547 303.285 67.5033 291.871 67.5033 291.871 74.352 305.569 74.352 305.569 81.2006 282.742 81.2006Z" fill="#FFFAF3" transform="matrix(1 0 0 1.00892 487.216 319)"/><path d="M100.595 17.5441C99.2568 17.5441 98.0195 17.3385 96.883 16.931 95.7465 16.5235 94.7484 15.9366 93.896 15.1702 93.0437 14.4038 92.3783 13.4842 91.9073 12.4113 91.4362 11.3384 91.197 10.1309 91.197 8.79259 91.197 7.45426 91.425 6.25799 91.8811 5.18135 92.3372 4.1047 92.9764 3.17759 93.7989 2.40376 94.6213 1.62992 95.5858 1.03552 96.6961 0.620566 97.8064 0.205609 99.0176-0.00373835 100.33-0.00373835 100.939-0.00373835 101.556 0.0448602 102.18 0.142057 102.805 0.239254 103.421 0.400003 104.023 0.624304 104.625 0.848605 105.205 1.14767 105.747 1.52525L104.569 3.64115C103.96 3.24862 103.302 2.95703 102.591 2.76264 101.881 2.57198 101.152 2.47479 100.397 2.47479 99.4176 2.47479 98.5353 2.62058 97.7428 2.91217 96.9503 3.20376 96.2736 3.6262 95.7129 4.17573 95.1521 4.72527 94.7222 5.38696 94.4194 6.16453 94.1204 6.94211 93.9671 7.82062 93.9671 8.79633 93.9671 10.1496 94.2549 11.3048 94.8306 12.258 95.4063 13.2113 96.2026 13.9328 97.2157 14.4263 98.2288 14.9197 99.3952 15.1665 100.719 15.1665 101.369 15.1665 101.952 15.1029 102.472 14.9796 102.991 14.8562 103.414 14.7141 103.735 14.5534L103.735 10.4898 99.9148 10.4898 99.9148 8.25427 106.15 8.25427 106.15 16.1123C105.709 16.4076 105.16 16.6656 104.498 16.8824 103.836 17.0992 103.156 17.2637 102.457 17.3758 101.754 17.488 101.133 17.5441 100.588 17.5441Z" fill="#FFFAF3" transform="matrix(1 0 0 1.00892 487.216 319)"/><path d="M119.904 17.1852 119.904 0.358881 126.263 0.358881C127.433 0.358881 128.442 0.560752 129.298 0.964493 130.151 1.36823 130.812 1.94394 131.28 2.68787 131.747 3.4318 131.982 4.31779 131.982 5.3421 131.982 6.17575 131.803 6.9122 131.448 7.5552 131.093 8.19446 130.592 8.72156 129.952 9.13652 129.313 9.54774 128.569 9.83185 127.728 9.98512L132.801 17.1852 129.545 17.1852 124.894 10.4076 122.599 10.4076 122.599 17.1852 119.907 17.1852ZM122.599 8.16081 125.822 8.16081C126.909 8.16081 127.758 7.92903 128.364 7.46548 128.969 7.00192 129.272 6.3365 129.272 5.4692 129.272 4.6019 128.999 3.88788 128.453 3.39442 127.908 2.90096 127.096 2.65423 126.012 2.65423L122.599 2.65423 122.599 8.15707Z" fill="#FFFAF3" transform="matrix(1 0 0 1.00892 487.216 319)"/><path d="M152.184 17.5441C150.685 17.5441 149.433 17.2413 148.424 16.6319 147.414 16.0226 146.655 15.1964 146.147 14.1496 145.639 13.1029 145.384 11.9291 145.384 10.6206L145.384 0.358881 148.087 0.358881 148.087 10.5982C148.087 12.0786 148.457 13.1851 149.194 13.9104 149.93 14.6356 150.928 14.9982 152.184 14.9982 153.44 14.9982 154.439 14.6356 155.175 13.9104 155.911 13.1851 156.282 12.0823 156.282 10.5982L156.282 0.358881 158.984 0.358881 158.984 10.6206C158.984 11.9178 158.73 13.0917 158.222 14.1347 157.713 15.1814 156.954 16.0076 155.949 16.6207 154.943 17.2338 153.687 17.5403 152.181 17.5403Z" fill="#FFFAF3" transform="matrix(1 0 0 1.00892 487.216 319)"/><path d="M172.88 17.1852 172.88 0.358881 178.973 0.358881C180.166 0.358881 181.224 0.56449 182.14 0.979447 183.056 1.39066 183.777 1.98506 184.297 2.7589 184.816 3.53274 185.078 4.46359 185.078 5.55145 185.078 6.6393 184.839 7.59258 184.357 8.35894 183.874 9.1253 183.175 9.70849 182.259 10.1085 181.343 10.5085 180.226 10.7104 178.914 10.7104L175.571 10.7104 175.571 17.1889 172.88 17.1889ZM175.571 8.38885 178.947 8.38885C180.035 8.38885 180.884 8.16081 181.482 7.70473 182.084 7.24865 182.383 6.54585 182.383 5.60004 182.383 4.65424 182.072 3.95891 181.459 3.46545 180.843 2.97199 180.013 2.72525 178.973 2.72525L175.571 2.72525 175.571 8.38511Z" fill="#FFFAF3" transform="matrix(1 0 0 1.00892 487.216 319)"/><path d="M205.531 17.5441C204.263 17.5441 203.093 17.3235 202.017 16.8786 200.94 16.4338 199.998 15.8169 199.198 15.0207 198.398 14.2281 197.777 13.2973 197.336 12.2319 196.895 11.1664 196.674 10.0113 196.674 8.77016 196.674 7.52903 196.895 6.36267 197.336 5.29724 197.777 4.23181 198.398 3.30096 199.198 2.50843 199.998 1.7159 200.94 1.09907 202.017 0.657949 203.093 0.216824 204.267-0.00373835 205.531-0.00373835 206.794-0.00373835 207.953 0.220562 209.026 0.669164 210.099 1.11777 211.037 1.74207 211.837 2.54208 212.637 3.34208 213.261 4.27293 213.706 5.33462 214.151 6.39631 214.372 7.54025 214.372 8.76642 214.372 9.9926 214.151 11.1627 213.706 12.2281 213.261 13.2936 212.637 14.2244 211.837 15.0169 211.037 15.8095 210.099 16.43 209.026 16.8749 207.953 17.3198 206.787 17.5403 205.531 17.5403ZM205.531 14.9982C206.379 14.9982 207.172 14.8525 207.904 14.5609 208.637 14.2693 209.276 13.8468 209.822 13.2973 210.368 12.7478 210.794 12.0898 211.101 11.3272 211.411 10.5608 211.564 9.71222 211.564 8.7739 211.564 7.51782 211.299 6.41874 210.764 5.48789 210.23 4.55331 209.508 3.83181 208.596 3.31965 207.684 2.8075 206.66 2.54955 205.531 2.54955 204.682 2.54955 203.889 2.69535 203.157 2.98694 202.424 3.27853 201.781 3.70096 201.235 4.2505 200.686 4.80004 200.256 5.45425 199.949 6.21687 199.639 6.97949 199.486 7.83184 199.486 8.77764 199.486 10.0337 199.755 11.1328 200.289 12.0636 200.828 12.9982 201.549 13.7197 202.458 14.2319 203.366 14.744 204.39 15.002 205.527 15.002Z" fill="#FFFAF3" transform="matrix(1 0 0 1.00892 487.216 319)"/></g></svg>